<svg class="service-technology__svg" viewBox="0 0 150 150" xmlns="http://www.w3.org/2000/svg" xmlns:xlink="http://www.w3.org/1999/xlink">
  <title>
    Angular to React
  </title>
  <defs>
    <path id="a" d="M0 0h101v135H0z"/>
    <path d="M0 0l27.138 8.675C36.657 13.308 44.61 18.72 51 24.912 56.896 31.184 70.01 49.842 71.074 55 68.6 64.341 63.64 71.001 56.896 79.583c-1.92 3.058-7.787 8.41-17.603 16.054L0 110V0z" id="c"/>
  </defs>
  <g fill="none" fill-rule="evenodd">
    <rect fill="#484848" width="150" height="150" rx="8"/>
    <g transform="translate(39 5)">
      <mask id="b" fill="#fff">
        <use xlink:href="#a"/>
      </mask>
      <use fill-opacity="0" fill="#D8D8D8" xlink:href="#a"/>
      <path d="M91 70.265c0-7.328-9.126-14.272-23.117-18.579 3.23-14.34 1.794-25.748-4.529-29.4-1.457-.858-3.161-1.263-5.022-1.263v5.028c1.031 0 1.86.202 2.556.586 3.05 1.758 4.372 8.455 3.34 17.068-.246 2.12-.65 4.351-1.143 6.629-4.394-1.083-9.193-1.917-14.237-2.458-3.027-4.171-6.166-7.96-9.328-11.274 7.31-6.831 14.17-10.574 18.834-10.574V21c-6.166 0-14.237 4.42-22.399 12.085-8.161-7.62-16.233-11.995-22.399-11.995v5.028c4.641 0 11.525 3.72 18.834 10.507a106.363 106.363 0 0 0-9.26 11.25c-5.067.542-9.865 1.376-14.26 2.481a68.366 68.366 0 0 1-1.166-6.539c-1.054-8.612.247-15.309 3.274-17.09.672-.406 1.547-.586 2.578-.586v-5.028c-1.883 0-3.587.406-5.067 1.262-6.3 3.653-7.713 15.04-4.462 29.334C-9.92 56.038-19 62.959-19 70.265c0 7.328 9.126 14.272 23.117 18.579-3.23 14.34-1.794 25.748 4.529 29.4 1.457.858 3.161 1.263 5.045 1.263 6.166 0 14.237-4.419 22.399-12.085 8.161 7.621 16.233 11.995 22.399 11.995 1.883 0 3.587-.406 5.067-1.262 6.3-3.653 7.713-15.04 4.462-29.334C81.919 84.515 91 77.571 91 70.265zM61.807 55.226c-.83 2.909-1.86 5.908-3.027 8.906a106.89 106.89 0 0 0-2.937-5.411c-1.031-1.804-2.13-3.562-3.229-5.276 3.184.473 6.256 1.06 9.193 1.781zM51.538 79.24c-1.749 3.044-3.542 5.93-5.403 8.613-3.341.293-6.727.45-10.135.45-3.386 0-6.771-.157-10.09-.428a124.383 124.383 0 0 1-5.426-8.568 117.68 117.68 0 0 1-4.663-8.973c1.39-3.022 2.96-6.043 4.64-8.997 1.75-3.043 3.543-5.93 5.404-8.612 3.341-.294 6.727-.451 10.135-.451 3.386 0 6.771.157 10.09.428a124.383 124.383 0 0 1 5.426 8.568 117.68 117.68 0 0 1 4.663 8.973 126.5 126.5 0 0 1-4.64 8.997zm7.242-2.931a96.994 96.994 0 0 1 3.094 8.973c-2.937.722-6.031 1.33-9.237 1.804 1.098-1.736 2.197-3.517 3.228-5.344a128.305 128.305 0 0 0 2.915-5.433zm-22.735 24.057a92.804 92.804 0 0 1-6.233-7.215c2.018.09 4.08.158 6.166.158 2.107 0 4.192-.045 6.233-.158a87.873 87.873 0 0 1-6.166 7.215zm-16.682-13.28c-3.184-.473-6.255-1.06-9.193-1.781.83-2.909 1.861-5.907 3.027-8.906a106.89 106.89 0 0 0 2.938 5.411 149.479 149.479 0 0 0 3.228 5.276zm16.57-46.92a92.804 92.804 0 0 1 6.233 7.215c-2.018-.09-4.08-.158-6.166-.158-2.108 0-4.193.045-6.233.158a87.873 87.873 0 0 1 6.166-7.215zM19.34 53.445c-1.099 1.736-2.198 3.517-3.229 5.344a127.598 127.598 0 0 0-2.915 5.41 96.994 96.994 0 0 1-3.094-8.973 108.35 108.35 0 0 1 9.238-1.781zM-.951 81.674c-7.937-3.405-13.071-7.87-13.071-11.409 0-3.54 5.134-8.027 13.071-11.409 1.929-.834 4.036-1.578 6.211-2.277 1.278 4.42 2.96 9.019 5.045 13.731C8.242 75 6.583 79.577 5.327 83.974a67.867 67.867 0 0 1-6.278-2.3zm12.063 32.22c-3.05-1.76-4.372-8.456-3.34-17.069.246-2.12.65-4.351 1.143-6.629 4.394 1.083 9.193 1.917 14.237 2.458 3.027 4.171 6.166 7.96 9.328 11.274-7.31 6.831-14.17 10.574-18.834 10.574-1.01-.022-1.861-.225-2.534-.609zm53.184-17.181c1.054 8.612-.247 15.309-3.274 17.09-.672.406-1.547.586-2.578.586-4.641 0-11.525-3.72-18.834-10.507a106.363 106.363 0 0 0 9.26-11.25c5.067-.542 9.865-1.376 14.26-2.48.516 2.277.92 4.464 1.166 6.56zm8.632-15.04c-1.928.835-4.036 1.579-6.21 2.278-1.279-4.42-2.96-9.019-5.045-13.731 2.062-4.69 3.722-9.267 4.977-13.664a70.857 70.857 0 0 1 6.3 2.3c7.938 3.405 13.072 7.87 13.072 11.409-.022 3.54-5.157 8.027-13.094 11.409z" fill="#61DAFB" fill-rule="nonzero" mask="url(#b)"/>
      <ellipse fill="#61DAFB" fill-rule="nonzero" mask="url(#b)" cx="36.07" cy="70.11" rx="10.07" ry="10.11"/>
    </g>
    <g transform="translate(24 20)">
      <mask id="d" fill="#fff">
        <use xlink:href="#c"/>
      </mask>
      <use fill-opacity="0" fill="#D8D8D8" xlink:href="#c"/>
      <path fill="#DD0031" fill-rule="nonzero" mask="url(#d)" d="M51 7.857L8.26 23.177l6.518 56.803L51 100.145 87.222 79.98l6.519-56.803z"/>
      <path fill="#C3002F" fill-rule="nonzero" mask="url(#d)" d="M51 7.857v10.244-.046 82.09L87.222 79.98l6.519-56.803z"/>
      <path d="M51 18.055L24.281 78.273h9.962l5.372-13.474h22.678l5.372 13.474h9.962L51 18.055zm7.804 38.438H43.196L51 37.62l7.804 18.873z" fill="#FFF" fill-rule="nonzero" mask="url(#d)"/>
    </g>
    <ellipse fill="#61DAFB" fill-rule="nonzero" cx="75.07" cy="75.11" rx="10.07" ry="10.11"/>
  </g>
</svg>
