<svg class="service-technology__svg" viewBox="0 0 150 150" xmlns="http://www.w3.org/2000/svg">
  <title>
    Client Side Performance
  </title>
  <g fill="none" fill-rule="evenodd">
    <rect fill="#F4D0D0" width="150" height="150" rx="8"/>
    <g fill-rule="nonzero">
      <path fill="#FFF" d="M30.313 43.107h89.375v55.16H30.313z"/>
      <path fill="#F2F2F2" d="M30.313 43.107h89.374v9.101l-89.374 46.06z"/>
      <path fill="#FF5C63" d="M30.313 43.107h89.375v8.625H30.313z"/>
      <path fill="#F2575F" d="M30.313 43.107h89.374l-89.374 8.626z"/>
      <path d="M118.642 36.212H31.355c-4.366 0-7.918 3.554-7.918 7.922v62.752a1.72 1.72 0 0 0 1.72 1.724h99.687a1.72 1.72 0 0 0 1.719-1.724V44.134c0-4.368-3.554-7.922-7.921-7.922zm-88.33 60.332V44.83c0-.952.77-1.724 1.72-1.724h85.937c.949 0 1.719.772 1.719 1.724v51.713c0 .951-.77 1.723-1.72 1.723H32.032c-.949 0-1.718-.772-1.718-1.723z" fill="#6C6C6C"/>
      <path d="M128.281 105.162H21.72A1.72 1.72 0 0 0 20 106.886c0 3.806 3.087 6.902 6.882 6.902h96.236c3.795 0 6.882-3.096 6.882-6.902a1.72 1.72 0 0 0-1.719-1.724z" fill="#B9BBC1"/>
      <path d="M49.888 71.932h-14.06a.828.828 0 0 1-.828-.83V57.83c0-.459.37-.83.827-.83h14.061c.457 0 .827.371.827.83v13.272c0 .458-.37.83-.827.83zM93.888 71.932h-14.06a.828.828 0 0 1-.828-.83V57.83c0-.459.37-.83.827-.83h14.061c.457 0 .827.371.827.83v13.272c0 .458-.37.83-.827.83zM93.888 93.932h-14.06a.828.828 0 0 1-.828-.83V79.83c0-.459.37-.83.827-.83h14.061c.457 0 .827.371.827.83v13.272c0 .458-.37.83-.827.83zM49.888 93.932h-14.06a.828.828 0 0 1-.828-.83V79.83c0-.459.37-.83.827-.83h14.061c.457 0 .827.371.827.83v13.272c0 .458-.37.83-.827.83z" fill="#53DCFF"/>
      <path d="M68.5 60.448h-12c-.83 0-1.5-.771-1.5-1.724S55.67 57 56.5 57h12c.83 0 1.5.771 1.5 1.724s-.67 1.724-1.5 1.724zM112.5 60.448h-12c-.83 0-1.5-.771-1.5-1.724S99.67 57 100.5 57h12c.83 0 1.5.771 1.5 1.724s-.67 1.724-1.5 1.724zM112.5 82.448h-12c-.83 0-1.5-.771-1.5-1.724S99.67 79 100.5 79h12c.83 0 1.5.771 1.5 1.724s-.67 1.724-1.5 1.724z" fill="#FF5C63"/>
      <path d="M68.5 66.448h-12c-.83 0-1.5-.771-1.5-1.724S55.67 63 56.5 63h12c.83 0 1.5.771 1.5 1.724s-.67 1.724-1.5 1.724zM112.5 66.448h-12c-.83 0-1.5-.771-1.5-1.724S99.67 63 100.5 63h12c.83 0 1.5.771 1.5 1.724s-.67 1.724-1.5 1.724zM112.5 88.448h-12c-.83 0-1.5-.771-1.5-1.724S99.67 85 100.5 85h12c.83 0 1.5.771 1.5 1.724s-.67 1.724-1.5 1.724zM68.5 72.448h-12c-.83 0-1.5-.771-1.5-1.724S55.67 69 56.5 69h12c.83 0 1.5.771 1.5 1.724s-.67 1.724-1.5 1.724zM112.5 72.448h-12c-.83 0-1.5-.771-1.5-1.724S99.67 69 100.5 69h12c.83 0 1.5.771 1.5 1.724s-.67 1.724-1.5 1.724zM112.5 94.448h-12c-.83 0-1.5-.771-1.5-1.724S99.67 91 100.5 91h12c.83 0 1.5.771 1.5 1.724s-.67 1.724-1.5 1.724z" fill="#B9BBC1"/>
      <path d="M68.5 82.448h-12c-.83 0-1.5-.771-1.5-1.724S55.67 79 56.5 79h12c.83 0 1.5.771 1.5 1.724s-.67 1.724-1.5 1.724z" fill="#FF5C63"/>
      <path d="M68.5 88.448h-12c-.83 0-1.5-.771-1.5-1.724S55.67 85 56.5 85h12c.83 0 1.5.771 1.5 1.724s-.67 1.724-1.5 1.724zM68.5 94.448h-12c-.83 0-1.5-.771-1.5-1.724S55.67 91 56.5 91h12c.83 0 1.5.771 1.5 1.724s-.67 1.724-1.5 1.724z" fill="#B9BBC1"/>
      <path d="M68.125 108.61h13.75a3.443 3.443 0 0 0 3.438-3.448H64.686a3.442 3.442 0 0 0 3.438 3.448z" fill="#8B8996"/>
    </g>
  </g>
</svg>
