<svg class="service-technology__svg" viewBox="0 0 150 150" xmlns="http://www.w3.org/2000/svg">
  <title>
    Javascript
  </title>
  <g fill="none" fill-rule="evenodd">
    <rect width="150" height="150" rx="8" fill="#F7CB4F"/>
    <path d="M86.976 88.688c3.057 4.99 7.033 8.659 14.066 8.659 5.908 0 9.683-2.953 9.683-7.033 0-4.89-3.878-6.621-10.381-9.466l-3.565-1.53c-10.29-4.383-17.125-9.874-17.125-21.483C79.654 47.14 87.803 39 100.537 39c9.065 0 15.583 3.155 20.28 11.416l-11.104 7.13c-2.445-4.384-5.082-6.11-9.176-6.11-4.177 0-6.824 2.649-6.824 6.11 0 4.277 2.65 6.009 8.767 8.658l3.565 1.527C118.16 72.927 125 78.223 125 90.131c0 12.837-10.085 19.87-23.628 19.87-13.242 0-21.797-6.31-25.983-14.581l11.587-6.732zm-50.37 1.236c2.24 3.974 4.278 7.334 9.177 7.334 4.685 0 7.64-1.833 7.64-8.96V39.814h14.259v48.677c0 14.764-8.657 21.484-21.292 21.484-11.416 0-18.028-5.908-21.39-13.024l11.607-7.027z" fill="#000" fill-rule="nonzero"/>
  </g>
</svg>
