<svg class="service-technology__svg" viewBox="0 0 150 150" xmlns="http://www.w3.org/2000/svg">
  <title>
    React Native
  </title>
  <g fill="none" fill-rule="evenodd">
    <rect fill="#333" width="150" height="150" rx="8"/>
    <g transform="translate(16 23)" fill="#FFF" fill-rule="nonzero">
      <path d="M118 52.512c0-7.81-9.79-15.213-24.798-19.803 3.464-15.285 1.924-27.446-4.858-31.34C86.78.458 84.952.025 82.956.025v5.36c1.106 0 1.996.216 2.742.624 3.271 1.875 4.69 9.013 3.584 18.193-.265 2.26-.698 4.639-1.227 7.066-4.714-1.154-9.861-2.043-15.273-2.62-3.247-4.446-6.614-8.483-10.006-12.016C70.617 9.349 77.977 5.359 82.98 5.359V0c-6.614 0-15.273 4.71-24.028 12.882C50.197 4.759 41.538.096 34.924.096v5.36c4.979 0 12.363 3.965 20.204 11.199a113.531 113.531 0 0 0-9.934 11.992c-5.436.577-10.583 1.466-15.297 2.644a72.452 72.452 0 0 1-1.25-6.97c-1.131-9.18.264-16.318 3.51-18.217.722-.432 1.66-.624 2.767-.624V.12c-2.02 0-3.849.433-5.436 1.346-6.759 3.893-8.274 16.03-4.786 31.267C9.742 37.347 0 44.725 0 52.512c0 7.81 9.79 15.213 24.798 19.803-3.464 15.285-1.924 27.446 4.858 31.34 1.564.912 3.392 1.345 5.412 1.345 6.614 0 15.273-4.71 24.028-12.882 8.755 8.123 17.414 12.786 24.028 12.786 2.02 0 3.849-.433 5.436-1.346 6.759-3.893 8.274-16.03 4.787-31.267C108.259 67.701 118 60.3 118 52.512zm-31.316-16.03c-.89 3.1-1.996 6.297-3.247 9.493a113.708 113.708 0 0 0-3.15-5.768C79.18 38.285 78 36.41 76.822 34.583c3.415.505 6.71 1.13 9.861 1.899zM75.668 62.077c-1.876 3.245-3.8 6.32-5.796 9.18-3.584.313-7.216.481-10.872.481-3.632 0-7.264-.168-10.823-.456a132.466 132.466 0 0 1-5.821-9.133 125.15 125.15 0 0 1-5.003-9.565c1.491-3.22 3.175-6.44 4.979-9.589 1.876-3.244 3.8-6.32 5.796-9.18 3.584-.313 7.216-.481 10.872-.481 3.632 0 7.264.168 10.823.456a132.466 132.466 0 0 1 5.821 9.133 125.15 125.15 0 0 1 5.003 9.565 134.523 134.523 0 0 1-4.979 9.59zm7.769-3.124a102.94 102.94 0 0 1 3.32 9.565c-3.152.769-6.47 1.418-9.91 1.923 1.178-1.85 2.357-3.75 3.463-5.696 1.107-1.923 2.14-3.87 3.127-5.792zM59.048 84.596c-2.237-2.307-4.474-4.879-6.686-7.69 2.164.096 4.377.168 6.614.168 2.26 0 4.498-.048 6.686-.169a93.828 93.828 0 0 1-6.614 7.691zM41.153 70.441c-3.415-.505-6.71-1.13-9.861-1.899.89-3.1 1.996-6.297 3.247-9.493.986 1.923 2.02 3.845 3.15 5.768a159.15 159.15 0 0 0 3.464 5.624zm17.775-50.013c2.237 2.307 4.474 4.879 6.686 7.69A149.012 149.012 0 0 0 59 27.95c-2.26 0-4.498.048-6.687.169a93.828 93.828 0 0 1 6.615-7.691zM41.129 34.583c-1.178 1.851-2.357 3.75-3.463 5.696a135.73 135.73 0 0 0-3.127 5.768 102.94 102.94 0 0 1-3.32-9.565c3.152-.745 6.47-1.394 9.91-1.899zm-21.767 30.09C10.848 61.043 5.34 56.285 5.34 52.512c0-3.773 5.508-8.556 14.022-12.16 2.068-.89 4.33-1.683 6.662-2.428 1.371 4.71 3.175 9.613 5.412 14.636-2.213 4.999-3.992 9.878-5.34 14.564a73.103 73.103 0 0 1-6.734-2.451zm12.94 34.343c-3.271-1.875-4.69-9.013-3.584-18.193.265-2.26.698-4.639 1.227-7.066 4.714 1.154 9.861 2.043 15.273 2.62 3.247 4.446 6.614 8.483 10.006 12.016-7.841 7.282-15.201 11.272-20.204 11.272-1.082-.024-1.996-.24-2.718-.65zm57.052-18.313c1.13 9.18-.265 16.318-3.512 18.217-.721.432-1.66.625-2.766.625-4.979 0-12.363-3.966-20.204-11.2a113.531 113.531 0 0 0 9.934-11.992c5.436-.577 10.583-1.466 15.297-2.644.553 2.427.986 4.759 1.25 6.994zm9.26-16.03c-2.069.889-4.33 1.682-6.663 2.427-1.37-4.71-3.174-9.613-5.411-14.636 2.213-4.999 3.992-9.878 5.34-14.564a76.325 76.325 0 0 1 6.758 2.451c8.514 3.63 14.022 8.388 14.022 12.161-.024 3.773-5.532 8.556-14.046 12.16z"/>
      <circle cx="59" cy="53" r="11"/>
    </g>
  </g>
</svg>
