<svg class="service-technology__svg" viewBox="0 0 150 150" xmlns="http://www.w3.org/2000/svg">
  <title>
    React on Rails
  </title>
  <g fill="none" fill-rule="evenodd">
    <rect fill="#484848" width="150" height="150" rx="8"/>
    <path d="M134 75.512c0-7.81-9.79-15.213-24.798-19.803 3.464-15.285 1.924-27.446-4.858-31.34-1.564-.912-3.392-1.345-5.388-1.345v5.36c1.106 0 1.996.216 2.742.624 3.271 1.875 4.69 9.013 3.584 18.193-.265 2.26-.698 4.639-1.227 7.066-4.714-1.154-9.861-2.043-15.273-2.62-3.247-4.446-6.614-8.483-10.006-12.016 7.841-7.282 15.201-11.272 20.204-11.272V23c-6.614 0-15.273 4.71-24.028 12.882-8.755-8.123-17.414-12.786-24.028-12.786v5.36c4.979 0 12.363 3.965 20.204 11.199a113.531 113.531 0 0 0-9.934 11.992c-5.436.577-10.583 1.466-15.297 2.644a72.452 72.452 0 0 1-1.25-6.97c-1.131-9.18.264-16.318 3.51-18.217.722-.432 1.66-.624 2.767-.624v-5.36c-2.02 0-3.849.433-5.436 1.346-6.759 3.893-8.274 16.03-4.786 31.267C25.742 60.347 16 67.725 16 75.512c0 7.81 9.79 15.213 24.798 19.803-3.464 15.285-1.924 27.446 4.858 31.34 1.564.912 3.392 1.345 5.412 1.345 6.614 0 15.273-4.71 24.028-12.882 8.755 8.123 17.414 12.786 24.028 12.786 2.02 0 3.849-.433 5.436-1.346 6.759-3.893 8.274-16.03 4.787-31.267C124.259 90.701 134 83.3 134 75.512zm-31.316-16.03c-.89 3.1-1.996 6.297-3.247 9.493a113.708 113.708 0 0 0-3.15-5.768C95.18 61.285 94 59.41 92.822 57.583c3.415.505 6.71 1.13 9.861 1.899zm-3.247 22.47a102.94 102.94 0 0 1 3.32 9.566c-3.152.769-6.47 1.418-9.91 1.923 1.178-1.85 2.357-3.75 3.463-5.696 1.107-1.923 2.14-3.87 3.127-5.792zm-24.389 25.644c-2.237-2.307-4.474-4.879-6.686-7.69 2.164.096 4.377.168 6.614.168 2.26 0 4.498-.048 6.686-.169a93.828 93.828 0 0 1-6.614 7.691zM57.153 93.441c-3.415-.505-6.71-1.13-9.861-1.899.89-3.1 1.996-6.297 3.247-9.493.986 1.923 2.02 3.845 3.15 5.768a159.15 159.15 0 0 0 3.464 5.624zm17.775-50.013c2.237 2.307 4.474 4.879 6.686 7.69A149.012 149.012 0 0 0 75 50.95c-2.26 0-4.498.048-6.687.169a93.828 93.828 0 0 1 6.615-7.691zM57.129 57.583c-1.178 1.851-2.357 3.75-3.463 5.696a135.73 135.73 0 0 0-3.127 5.768 102.94 102.94 0 0 1-3.32-9.565c3.152-.745 6.47-1.394 9.91-1.899zm-21.767 30.09c-8.514-3.63-14.022-8.388-14.022-12.161 0-3.773 5.508-8.556 14.022-12.16 2.068-.89 4.33-1.683 6.662-2.428 1.371 4.71 3.175 9.613 5.412 14.636-2.213 4.999-3.992 9.878-5.34 14.564a73.103 73.103 0 0 1-6.734-2.451zm12.94 34.343c-3.271-1.875-4.69-9.013-3.584-18.193.265-2.26.698-4.639 1.227-7.066 4.714 1.154 9.861 2.043 15.273 2.62 3.247 4.446 6.614 8.483 10.006 12.016-7.841 7.282-15.201 11.272-20.204 11.272-1.082-.024-1.996-.24-2.718-.65zm57.052-18.313c1.13 9.18-.265 16.318-3.512 18.217-.721.432-1.66.625-2.766.625-4.979 0-12.363-3.966-20.204-11.2a113.531 113.531 0 0 0 9.934-11.992c5.436-.577 10.583-1.466 15.297-2.644.553 2.427.986 4.759 1.25 6.994zm9.26-16.03c-2.069.889-4.33 1.682-6.663 2.427-1.37-4.71-3.174-9.613-5.411-14.636 2.213-4.999 3.992-9.878 5.34-14.564a76.325 76.325 0 0 1 6.758 2.451c8.514 3.63 14.022 8.388 14.022 12.161-.024 3.773-5.532 8.556-14.046 12.16z" fill="#61DAFB" fill-rule="nonzero"/>
    <path fill="#FF5C63" d="M61.667 61l6.666 10.968H55zM75 61l6.667 10.968H68.333zM88.333 61L95 71.968H81.667z"/>
    <path fill="#CC0200" d="M68.333 71.968L75 61H61.667z"/>
    <path fill="#FF5C63" d="M75 95l6.667-23.032H68.333z"/>
    <path fill="#CC0200" d="M75 95l-6.509-23.032H55zM75 95l6.509-23.032H95zM81.667 71.968L88.333 61H75z"/>
  </g>
</svg>
