<svg class="service-technology__svg" viewBox="0 0 150 150" xmlns="http://www.w3.org/2000/svg">
  <title>
    Server Side Performance
  </title>
  <g fill="none" fill-rule="evenodd">
    <rect fill="#484848" width="150" height="150" rx="8"/>
    <path d="M122.87 54.054v5.142c.497 1.828-.43 3.77-2.782 5.18l-13.558 8.128c-3.882 2.328-10.177 2.328-14.06 0l-13.558-8.128c-1.617-.97-2.56-2.19-2.83-3.452H76v-7.78c-.023-1.543.948-3.092 2.912-4.27l13.558-8.128c3.883-2.328 10.178-2.328 14.06 0l13.558 8.128c2.352 1.41 3.28 3.352 2.782 5.18zm-1.058 11.804c1.055 1.188 1.407 2.547 1.058 3.849v5.216c.497 1.855-.43 3.825-2.782 5.256l-13.558 8.246c-3.882 2.362-10.177 2.362-14.06 0L78.912 80.18c-1.617-.984-2.56-2.222-2.83-3.503H76v-7.892c-.014-1.008.381-2.017 1.189-2.927.448.505 1.022.98 1.724 1.406L92.47 75.51c3.882 2.362 10.177 2.362 14.06 0l13.557-8.247c.702-.426 1.276-.9 1.724-1.405zm0 15.946c1.055 1.189 1.407 2.547 1.058 3.85v5.216c.497 1.855-.43 3.824-2.782 5.255l-13.558 8.247c-3.882 2.361-10.177 2.361-14.06 0l-13.558-8.247c-1.617-.984-2.56-2.222-2.83-3.502H76V84.73c-.014-1.007.381-2.016 1.189-2.926.448.505 1.022.98 1.724 1.406l13.558 8.246c3.882 2.362 10.177 2.362 14.06 0l13.557-8.246c.702-.427 1.276-.901 1.724-1.406z" fill="#FF5C63"/>
    <path d="M75.87 54.054v5.142c.497 1.828-.43 3.77-2.782 5.18L59.53 72.504c-3.882 2.328-10.177 2.328-14.06 0l-13.558-8.128c-1.617-.97-2.56-2.19-2.83-3.452H29v-7.78c-.023-1.543.948-3.092 2.912-4.27l13.558-8.128c3.883-2.328 10.178-2.328 14.06 0l13.558 8.128c2.352 1.41 3.28 3.352 2.782 5.18zm-1.058 11.804c1.055 1.188 1.407 2.547 1.058 3.849v5.216c.497 1.855-.43 3.825-2.782 5.256L59.53 88.425c-3.882 2.362-10.177 2.362-14.06 0L31.912 80.18c-1.617-.984-2.56-2.222-2.83-3.503H29v-7.892c-.014-1.008.381-2.017 1.189-2.927.448.505 1.022.98 1.724 1.406L45.47 75.51c3.882 2.362 10.177 2.362 14.06 0l13.557-8.247c.702-.426 1.276-.9 1.724-1.405zm0 15.946c1.055 1.189 1.407 2.547 1.058 3.85v5.216c.497 1.855-.43 3.824-2.782 5.255l-13.558 8.247c-3.882 2.361-10.177 2.361-14.06 0l-13.558-8.247c-1.617-.984-2.56-2.222-2.83-3.502H29V84.73c-.014-1.007.381-2.016 1.189-2.926.448.505 1.022.98 1.724 1.406l13.558 8.246c3.882 2.362 10.177 2.362 14.06 0l13.557-8.246c.702-.427 1.276-.901 1.724-1.406z" fill="#FF5C63"/>
    <g transform="translate(45 43)">
      <mask id="a" fill="#fff">
        <path d="M59.734 28.438v37.843c.634 2.361-.546 4.867-3.539 6.687l-17.25 10.493c-4.94 3.004-12.95 3.004-17.89 0L3.806 72.968C1.748 71.717.548 70.141.204 68.512H.1v-50.23c-.03-1.964 1.205-3.934 3.704-5.433l17.25-10.342c4.94-2.962 12.95-2.962 17.89 0l17.25 10.342c2.993 1.794 4.173 4.264 3.539 6.59v6.543a4.626 4.626 0 0 1 0 2.456z"/>
      </mask>
      <path fill="#484848" d="M59.734 28.438v37.843c.634 2.361-.546 4.867-3.539 6.687l-17.25 10.493c-4.94 3.004-12.95 3.004-17.89 0L3.806 72.968C1.748 71.717.548 70.141.204 68.512H.1v-50.23c-.03-1.964 1.205-3.934 3.704-5.433l17.25-10.342c4.94-2.962 12.95-2.962 17.89 0l17.25 10.342c2.993 1.794 4.173 4.264 3.539 6.59v6.543a4.626 4.626 0 0 1 0 2.456z"/>
      <path d="M56.585 54c1.256 1.417 1.676 3.035 1.26 4.587v6.215c.593 2.21-.512 4.557-3.315 6.262L38.376 80.89c-4.626 2.813-12.126 2.813-16.752 0L5.47 71.064c-1.927-1.172-3.05-2.647-3.373-4.173H2v-9.404c-.017-1.2.455-2.403 1.416-3.487.534.602 1.219 1.167 2.055 1.676L21.625 65.5c4.626 2.814 12.126 2.814 16.752 0l16.154-9.825c.835-.509 1.52-1.074 2.054-1.675z" fill="#FF5C63" mask="url(#a)"/>
      <path d="M56.585 35c1.256 1.417 1.676 3.035 1.26 4.587v6.215c.593 2.21-.512 4.557-3.315 6.262L38.376 61.89c-4.626 2.813-12.126 2.813-16.752 0L5.47 52.064c-1.927-1.172-3.05-2.647-3.373-4.173H2v-9.404c-.017-1.2.455-2.403 1.416-3.487.534.602 1.219 1.167 2.055 1.676L21.625 46.5c4.626 2.814 12.126 2.814 16.752 0l16.154-9.825c.835-.509 1.52-1.074 2.054-1.675z" fill="#FF5C63" mask="url(#a)"/>
      <path d="M57.845 20.937v6.126c.593 2.179-.512 4.492-3.315 6.172L38.376 42.92c-4.626 2.773-12.126 2.773-16.752 0L5.47 33.235c-1.927-1.155-3.05-2.61-3.373-4.113H2v-9.27c-.027-1.839 1.129-3.683 3.47-5.087L21.624 5.08c4.626-2.773 12.126-2.773 16.752 0l16.154 9.685c2.803 1.68 3.908 3.993 3.315 6.172z" fill="#FF5C63" mask="url(#a)"/>
      <path d="M38.376 5.08l16.154 9.685c4.626 2.773 4.626 7.27 0 10.044l-16.154 9.684c-4.626 2.774-12.126 2.774-16.752 0L5.47 24.81c-4.627-2.774-4.627-7.27 0-10.044L21.624 5.08c4.626-2.773 12.126-2.773 16.752 0z" fill-opacity=".38" fill="#EB545C" style="mix-blend-mode:overlay" mask="url(#a)"/>
      <path d="M2.022 69.059c16.638-10.202 20.234-14.352 28.04-32.702 3.698 1.413 26.17-13.472 28.526-18.752V68.06c-12.61 10.033-22.12 15.05-28.526 15.05-9.61 0-28.04-11.482-28.04-14.05z" fill-opacity=".23" fill="#B34046" style="mix-blend-mode:multiply"/>
      <circle fill="#DFD77F" cx="38.5" cy="53.5" r="1.5"/>
      <circle fill="#DFD77F" cx="45.5" cy="49.5" r="1.5"/>
      <circle fill="#DFD77F" cx="52.5" cy="45.5" r="1.5"/>
    </g>
  </g>
</svg>
