<?xml version="1.0" encoding="utf-8"?>
<!-- Generator: Adobe Illustrator 16.0.0, SVG Export Plug-In . SVG Version: 6.00 Build 0)  -->
<!DOCTYPE svg PUBLIC "-//W3C//DTD SVG 1.1//EN" "http://www.w3.org/Graphics/SVG/1.1/DTD/svg11.dtd">
<svg version="1.1"
	 id="svg770" xmlns:odm="http://product.corel.com/CGS/11/cddns/" xmlns:sodipodi="http://sodipodi.sourceforge.net/DTD/sodipodi-0.dtd" sodipodi:docname="D:\Dokumenty\Wikipedie\images\svg\ASL\Sign language_Y.svg" sodipodi:version="0.34"
	 xmlns="http://www.w3.org/2000/svg" xmlns:xlink="http://www.w3.org/1999/xlink" x="0px" y="0px" width="100px" height="84.34px"
	 viewBox="236 199.83 100 84.34" enable-background="new 236 199.83 100 84.34" xml:space="preserve">
<sodipodi:namedview  id="base"></sodipodi:namedview>
<g id="Layer_1" transform="matrix(1.739207,0,0,1.739394,-2963.702,-6970.726)">
	<path id="path774" fill="#1F1A17" d="M1839.747,4124.802c0-0.686,0.258-1.245,0.766-1.694c0.515-0.442,1.141-0.663,1.892-0.663
		c0.413,0,0.818,0.103,1.23,0.31c1.091,1.701,2.895,3.837,5.421,6.393s4.059,4.213,4.604,4.957c0-0.818,0.287-1.547,0.869-2.195
		c0.583-0.647,1.282-0.972,2.1-0.972c0.405-0.14,0.95-0.103,1.634,0.102c0.686,0.207,1.157,0.237,1.437,0.104
		c0.339-1.09,1.068-1.894,2.195-2.408c1.127-0.508,2.306-0.767,3.528-0.767c0.818,0.479,1.4,0.714,1.739,0.714
		c0.346,0,0.545-0.272,0.618-0.816c0.273-0.884,0.9-1.452,1.893-1.687c0.986-0.236,2.165-0.361,3.528-0.361
		c1.502,0.892,2.763,2.188,3.787,3.889c1.024,1.709,1.87,3.108,2.555,4.198c-0.139,0.545,0.052,1.363,0.56,2.453
		c0.516,1.09,0.774,1.738,0.774,1.945c2.387-3.005,4.5-5.51,6.343-7.521c1.841-2.011,3.954-3.021,6.342-3.021
		c0.75,0,1.517,0.155,2.298,0.465c0.788,0.302,1.243,1.141,1.384,2.503c-0.067,0.413-0.442,0.767-1.127,1.076
		c-0.686,0.31-1.428,0.634-2.254,0.973c-0.744,0.817-1.546,2.268-2.401,4.346c-0.855,2.083-1.553,3.425-2.1,4.043
		c-1.089,1.973-1.972,4.257-2.658,6.85c-1.43,1.915-2.917,3.89-4.449,5.938c-1.533,2.047-3.123,3.718-4.758,5.007
		c-0.208,0.347-0.339,0.701-0.406,1.076c-0.074,0.377-0.103,0.804-0.103,1.281c0,0.339,0.029,0.855,0.103,1.533
		c0.067,0.686,0.103,1.23,0.103,1.636c0,0.413-0.036,0.752-0.103,1.024c-0.818,0.891-1.45,1.539-1.892,1.944
		c-0.444,0.413-1.725,1.4-3.838,2.968c-0.339,0.141-0.855,0.259-1.533,0.362c-0.686,0.103-1.399,0.146-2.15,0.146
		c-1.568,0-3.1-0.198-4.603-0.611c-1.502-0.406-3.072-1.025-4.707-1.841c-0.273-0.752-0.508-1.723-0.715-2.917
		c-0.206-1.194-0.375-2.365-0.515-3.528c-1.768-2.049-3.204-4.737-4.295-8.081c-1.363-4.981-2.725-9.959-4.096-14.939
		c-2.659-2.931-4.824-5.406-6.496-7.417C1840.587,4129.589,1839.747,4127.321,1839.747,4124.802z M1840.668,4123.977
		c-0.132,0.685-0.206,1.194-0.206,1.539c0,1.09,0.272,2.093,0.824,3.013c0.545,0.92,1.326,1.864,2.349,2.814
		c0.479,0.073,0.973-0.096,1.481-0.508c0.515-0.413,1.009-0.818,1.488-1.23c-0.14,0.479-0.361,0.839-0.67,1.075
		c-0.303,0.244-0.833,0.597-1.584,1.076c0.272,1.23,0.958,2.18,2.047,2.865c0.132-0.479,0.597-1.141,1.378-1.996
		c0.788-0.854,1.178-1.555,1.178-2.099c-0.339-0.405-0.662-0.766-0.972-1.076c-0.303-0.302-0.597-0.457-0.869-0.457
		c-0.207,0-0.406,0.169-0.612,0.508l0.406-1.222c-0.199-0.207-0.78-1.113-1.738-2.711c-0.95-1.605-1.841-2.409-2.658-2.409
		C1841.898,4123.159,1841.287,4123.432,1840.668,4123.977z M1872.178,4126.436c-1.089,0.207-2.025,0.428-2.812,0.664
		c-0.782,0.235-1.209,0.802-1.282,1.687l0.412,9.31c0.545,0.207,1.281,0.221,2.203,0.051c0.919-0.169,1.443-0.258,1.585-0.258
		c-0.958,0.752-2.152,1.127-3.582,1.127c0.067,0.414,0.252,1.009,0.56,1.791c0.311,0.787,0.495,1.281,0.567,1.487l1.533-0.516
		c0.678-0.207,1.26,0.014,1.738,0.663c0.478,0.648,0.855,1.178,1.127,1.592c0.545-1.71,0.855-4.25,0.922-7.624
		c0.064-3.374,0.169-5.643,0.3-6.806c0.413,0.272,0.65,0.788,0.722,1.539c0.067,0.751,0.134,1.466,0.2,2.143l0.92-1.531
		c-0.47-1.09-1.14-2.077-1.988-2.968C1874.447,4127.902,1873.409,4127.114,1872.178,4126.436z M1865.226,4128.58
		c-1.23,0.207-2.188,0.449-2.865,0.722c-0.685,0.273-1.297,0.818-1.842,1.636c0.545,4.228,1.105,7.366,1.687,9.414
		c0.582,2.04,1.79,3.918,3.632,5.627c0-0.272,0.17-0.515,0.508-0.722c0.345-0.199,0.581-0.339,0.722-0.405
		c0.611-0.272,1.119-0.324,1.531-0.154c0.405,0.169,0.988,0.493,1.738,0.972l-1.841-3.889c-0.611,0.412-1.178,0.714-1.687,0.92
		c-0.516,0.207-1.112,0.31-1.789,0.31c-0.14,0.067-0.272,0.015-0.413-0.154c-0.133-0.17-0.206-0.288-0.206-0.362
		c0.272-0.132,0.907-0.302,1.893-0.507c0.995-0.207,1.657-0.479,1.996-0.818c-0.405-0.958-0.7-1.96-0.869-3.021
		c-0.169-1.053-0.257-2.298-0.257-3.734c0-0.751,0-1.502,0-2.247c0-0.751,0.037-1.502,0.103-2.253
		C1866.927,4129.029,1866.242,4128.58,1865.226,4128.58z M1895.609,4128.787c-0.346-0.066-0.855-0.104-1.539-0.104
		c-1.842,0-3.477,0.531-4.905,1.592c-1.437,1.053-2.732,2.438-3.89,4.139c-0.066,0.414,0.252,0.973,0.973,1.687
		c0.714,0.722,0.935,1.282,0.663,1.687c-0.544,0-1.06-0.339-1.533-1.017c-0.477-0.684-0.816-1.098-1.022-1.229
		c-0.413,0.339-0.841,0.766-1.284,1.281c-0.441,0.508-1.179,1.547-2.194,3.115c0.338,1.024,0.715,2.049,1.121,3.072
		c0.411,1.024,0.994,1.841,1.738,2.453c-0.819-0.339-1.481-0.936-1.989-1.791c-0.517-0.854-1.046-1.959-1.592-3.321
		c-0.544,0.339-0.816,0.847-0.816,1.531c0,0.686,0,1.364,0,2.048c-0.067-0.412-0.236-0.648-0.508-0.714
		c0,0.471,0.067,0.972,0.206,1.48c0.134,0.508,0.303,1.105,0.508,1.79c-0.817-1.362-1.23-2.866-1.23-4.5l-2.865,1.532
		c-0.067,0.479-0.287,0.92-0.663,1.333c-0.375,0.405-0.701,0.752-0.973,1.024c-0.95-0.207-1.907,0.132-2.865,1.023
		c-0.95,0.885-1.766,1.363-2.452,1.43c-0.884,0.339-1.555,0.958-1.996,1.841c-0.442,0.883-0.832,2.01-1.179,3.374
		c0.545,1.23,0.972,2.151,1.281,2.763c0.309,0.619,0.804,1.369,1.481,2.254c1.165,0.206,2.356,0.308,3.586,0.308
		c1.571,0,2.963-0.103,4.193-0.308c1.428-0.547,2.945-1.792,4.552-3.736c1.605-1.944,3.358-4.11,5.266-6.496
		c0.686-2.254,1.23-3.919,1.643-5.017c0.404-1.09,1.017-2.283,1.841-3.579l-0.922-0.406c0.067-0.206,0.2-0.31,0.406-0.31
		c0.206,0,0.413,0,0.611,0l-0.611-0.611c0.752,0,1.261-0.103,1.532-0.31c0.552-1.635,1.348-3.189,2.409-4.655
		c1.053-1.466,2.334-2.607,3.838-3.425l-0.104-0.516L1895.609,4128.787z M1850.082,4131.548c-0.14-0.206-0.339-0.302-0.611-0.302
		c-0.273,0-0.449,0.132-0.516,0.405c0.14,0.339,0.051,0.714-0.258,1.127c-0.302,0.405-0.522,0.677-0.662,0.817l-0.207-0.206
		c0.273-0.273,0.376-0.479,0.31-0.611c-0.132,0.132-0.405,0.507-0.818,1.126l0.715-0.103c-0.751,0.479-1.127,0.95-1.127,1.429
		c0,0.412,0.272,0.869,0.825,1.385c0.544,0.508,1.193,1.075,1.937,1.687c0.206-0.14,0.67-0.648,1.384-1.533
		c0.715-0.891,1.312-1.437,1.79-1.642L1850.082,4131.548z M1855.399,4132.167c-0.478,0.273-0.803,0.664-0.972,1.172
		c-0.17,0.515-0.25,1.142-0.25,1.893c0.884,3.344,1.754,6.069,2.607,8.184c0.847,2.113,2.505,3.483,4.958,4.094
		c-0.067-0.611,0.073-1.125,0.412-1.531c0.339-0.413,0.818-0.789,1.429-1.127c-0.339-0.891-0.678-1.333-1.024-1.333
		c0,0.272-0.169,0.493-0.507,0.67c-0.339,0.169-0.508,0.317-0.508,0.458c-0.553,0.206-1.098,0.309-1.643,0.309
		c-0.611,0-1.09-0.14-1.429-0.414c0.611,0,1.141-0.065,1.584-0.205c0.442-0.132,1.281-0.545,2.504-1.224
		c-0.471-1.163-0.935-2.541-1.377-4.146c-0.443-1.598-0.936-3.867-1.481-6.799c-0.751-0.412-1.502-0.619-2.253-0.619
		C1856.696,4131.548,1856.018,4131.755,1855.399,4132.167z M1877.395,4132.779l-0.105,0.611c0.074-0.134,0.105-0.273,0.105-0.406
		V4132.779z M1878.013,4133.596c-0.546,0.612-1.075,1.26-1.591,1.945c-0.509,0.678-0.627,1.399-0.354,2.151
		c0.48-0.074,0.988-0.375,1.533-0.921c0.544-0.552,0.919-0.854,1.127-0.92c0.131,0.678-0.362,1.363-1.489,2.04
		c-1.12,0.686-1.517,1.437-1.171,2.254c0.819,0.132,1.399,0.207,1.738,0.207c0.884,0,1.533-0.273,1.946-0.818
		c0.065-0.891-0.192-2.033-0.767-3.433C1878.404,4134.701,1878.078,4133.869,1878.013,4133.596z M1853.661,4136.049
		c-0.544,0.272-1.141,0.648-1.79,1.127c-0.648,0.479-1.245,0.92-1.79,1.333c-0.207,0.752-0.221,1.415-0.051,1.996
		c0.169,0.575,0.493,1.415,0.972,2.505c0.479,0.067,1.194-0.067,2.151-0.412c0.951-0.339,1.702-0.406,2.246-0.207
		c-0.751-1.157-1.465-2.313-2.143-3.477c0.611,0.751,1.12,1.267,1.531,1.539c0-0.552-0.243-1.192-0.714-1.945
		c-0.479-0.751-0.752-1.23-0.818-1.435l0.611,0.205L1853.661,4136.049z M1877.092,4141.168l-0.818-0.413l-0.309,0.413H1877.092z
		 M1870.948,4142.598l0.619-0.104L1870.948,4142.598z M1870.132,4143.415l0.714,1.643c1.438,0.132,2.321-0.178,2.668-0.92
		c0-0.826-0.346-1.23-1.024-1.23c-0.347,0-0.737,0.065-1.179,0.205C1870.868,4143.246,1870.478,4143.349,1870.132,4143.415z
		 M1853.352,4143.01c-0.95,0.272-1.583,0.53-1.892,0.766c-0.302,0.235-0.354,0.633-0.147,1.179
		c1.297,4.229,2.585,8.455,3.882,12.684c0.684,1.364,1.333,2.373,1.945,3.02c0.618,0.649,1.435,0.974,2.46,0.974
		c0.405,0,0.714-0.037,0.921-0.104c0.745,0,1.665-0.325,2.763-0.973c1.09-0.646,1.87-0.973,2.349-0.973
		c-0.207,0.339-0.361,0.611-0.457,0.819c-0.103,0.206-0.088,0.442,0.052,0.714c0.612-0.611,0.921-1.259,0.921-1.944
		c0-0.678-0.207-1.348-0.619-1.997c-0.406-0.647-0.78-1.274-1.127-1.893c0.14-1.222,0.309-2.452,0.516-3.682
		c0-0.2,0.221-0.677,0.663-1.43s0.663-1.26,0.663-1.533c0-0.411-0.272-0.722-0.818-0.919c-0.272,0.47-0.78,0.75-1.531,0.816
		c-0.751,0.067-1.297,0.17-1.636,0.303c-2.931-1.017-5.045-2.829-6.342-5.421L1853.352,4143.01z M1867.678,4145.463l-0.611-0.207
		L1867.678,4145.463z M1868.393,4145.463c-0.067,0.14-0.494,0.324-1.282,0.567c-0.781,0.236-0.935,0.693-0.456,1.377
		c0.684,0.208,1.244,0.208,1.687,0c0.442-0.206,0.971-0.508,1.584-0.92c-0.275-0.339-0.508-0.633-0.717-0.869
		C1869.004,4145.382,1868.732,4145.33,1868.393,4145.463z M1863.995,4146.074c-0.14,0.14-0.479,0.294-1.023,0.463
		c-0.546,0.169-0.686,0.53-0.413,1.077h0.825c0.339-0.208,0.626-0.393,0.869-0.567c0.236-0.17,0.325-0.421,0.25-0.767
		L1863.995,4146.074z M1867.472,4159.79l-0.206,0.404c0.14,0.613,0.258,2.064,0.361,4.347c0.103,2.29,0.53,3.977,1.282,5.068
		c1.017,0.067,1.959-0.141,2.806-0.611c0.852-0.48,1.59-1.194,2.201-2.151c-0.206-0.339-0.338-0.752-0.403-1.23
		c-0.075-0.48-0.104-0.988-0.104-1.533v-1.738c0-0.272,0-0.581,0-0.919c-0.139-0.275-0.206-0.444-0.206-0.517l-2.657,0.517
		c-1.091-0.142-1.71-0.48-1.844-1.025c0.208-0.141,0.457-0.118,0.768,0.051c0.308,0.169,0.529,0.221,0.663,0.154
		c0.686,0,1.281-0.023,1.79-0.052c0.516-0.036,0.942-0.192,1.281-0.464C1871.428,4160.09,1869.521,4159.988,1867.472,4159.79z
		 M1866.449,4159.79c-0.207,0.817-0.302,1.636-0.302,2.453c0,0.958,0.118,2.333,0.353,4.139c0.243,1.813,0.361,2.956,0.361,3.433
		h1.223c-0.472-1.088-0.833-2.85-1.068-5.273C1866.772,4162.124,1866.588,4160.532,1866.449,4159.79z M1875.655,4160.193
		l0.105-0.404L1875.655,4160.193z M1874.432,4159.988c0.067,0.141-0.139,0.449-0.619,0.921v2.255c0,1.568,0.244,2.621,0.716,3.166
		c0.206-0.745,0.308-1.466,0.308-2.144c-0.067-1.296-0.103-2.318-0.103-3.071v-1.024L1874.432,4159.988z M1864.401,4160.909
		c-1.09,0.544-2.011,0.971-2.763,1.282c-0.743,0.308-1.531,0.457-2.349,0.457c0.883,0,1.517-0.031,1.893-0.097
		c0.375-0.073,1.451-0.375,3.219-0.919V4160.909z M1875.655,4161.115v2.151c0,0.817,0.067,1.399,0.208,1.738L1875.655,4161.115z
		 M1865.424,4161.631c-0.132,0.95-0.198,1.702-0.198,2.246c0,1.774,0.273,3.41,0.817,4.912c0.067-0.346,0.104-0.891,0.104-1.635
		c0-0.825-0.037-1.708-0.104-2.666c-0.073-0.95-0.14-1.908-0.205-2.857H1865.424z M1864.71,4162.139
		c-0.884,0.338-1.923,0.663-3.123,0.973c-1.193,0.308-2.261,0.493-3.219,0.56l0.921,4.301l6.135,1.635L1864.71,4162.139z"/>
</g>
</svg>
